# xmcd
#
# Track frame offsets:
#	150
#	21528
#	48739
#	101031
#	149832
#	180906
#	204257
#
# Disc length: 2972 seconds
#
# Revision: 1
# Processed by: cddbd v1.5.2PL0 Copyright (c) Steve Scherf et al.
# Submitted via: audiograbber 1.83.01
#
DISCID=660b9a07
DTITLE=Grateful Dead - 82-09-05 Glen Helen Regional Park, Devore CA
DYEAR=1900
DGENRE=
TTITLE0=Tuning - Phil
TTITLE1=Playing In The Band
TTITLE2=Shakedown Street
TTITLE3=Minglewood Blues
TTITLE4=Samson and Delilah
TTITLE5=China Cat Sunflower
TTITLE6=I Know You Rider
EXTD=
EXTT0=
EXTT1=
EXTT2=
EXTT3=
EXTT4=
EXTT5=
EXTT6=
PLAYORDER=
